<svg width="650" height="728" viewBox="0 0 650 728" fill="none" xmlns="http://www.w3.org/2000/svg">
<g clip-path="url(#clip0_49_341)">
<path d="M362.889 172.947H358.891V63.4019C358.891 46.5867 352.211 30.4602 340.321 18.57C328.43 6.67986 312.304 2.12175e-05 295.489 2.01908e-10H63.402C55.076 -2.10113e-05 46.8314 1.6399 39.1391 4.82612C31.4469 8.01234 24.4575 12.6825 18.5701 18.5699C12.6826 24.4573 8.01249 31.4466 4.82623 39.1389C1.63997 46.8311 1.83851e-05 55.0756 0 63.4017V664.376C-7.87929e-06 672.702 1.6399 680.947 4.82614 688.639C8.01238 696.331 12.6825 703.321 18.5699 709.208C24.4574 715.095 31.4467 719.766 39.139 722.952C46.8312 726.138 55.0758 727.778 63.4018 727.778H295.488C312.304 727.778 328.43 721.098 340.32 709.208C352.211 697.318 358.89 681.191 358.89 664.376V250.923H362.889V172.947Z" fill="#E6E6E6"/>
<path d="M298.047 16.495H267.752C269.145 19.9106 269.677 23.6165 269.3 27.2861C268.924 30.9557 267.651 34.4764 265.593 37.538C263.536 40.5997 260.757 43.1084 257.501 44.8431C254.246 46.5778 250.613 47.4852 246.925 47.4855H113.965C110.276 47.4852 106.644 46.5778 103.389 44.8431C100.133 43.1084 97.3541 40.5997 95.2965 37.538C93.2389 34.4763 91.9659 30.9556 91.5894 27.286C91.213 23.6164 91.7448 19.9106 93.138 16.4949H64.8425C52.2851 16.4949 40.242 21.4833 31.3625 30.3627C22.4831 39.2421 17.4946 51.2852 17.4946 63.8426V663.935C17.4946 676.493 22.483 688.536 31.3625 697.415C40.2419 706.295 52.285 711.283 64.8424 711.283H298.047C304.265 711.283 310.422 710.058 316.166 707.679C321.911 705.3 327.13 701.812 331.527 697.415C335.923 693.019 339.411 687.799 341.79 682.055C344.17 676.31 345.395 670.153 345.395 663.935V63.8427C345.395 57.6249 344.17 51.468 341.79 45.7235C339.411 39.979 335.923 34.7594 331.527 30.3628C327.13 25.9661 321.91 22.4785 316.166 20.0991C310.421 17.7197 304.265 16.495 298.047 16.495Z" fill="white"/>
<path d="M326.151 487.819H46.5325C45.1597 487.817 43.8436 487.271 42.8729 486.3C41.9021 485.33 41.3561 484.014 41.3545 482.641V413.28C41.3561 411.907 41.9021 410.591 42.8729 409.62C43.8436 408.649 45.1597 408.103 46.5325 408.102H326.151C327.524 408.103 328.84 408.649 329.811 409.62C330.782 410.591 331.328 411.907 331.33 413.28V482.642C331.328 484.014 330.781 485.33 329.811 486.301C328.84 487.271 327.524 487.817 326.151 487.819ZM46.5325 410.173C45.7087 410.174 44.9189 410.501 44.3364 411.084C43.7539 411.666 43.4263 412.456 43.4255 413.28V482.642C43.4263 483.466 43.7539 484.255 44.3364 484.838C44.9189 485.42 45.7087 485.748 46.5325 485.749H326.151C326.975 485.748 327.765 485.42 328.348 484.838C328.93 484.255 329.258 483.466 329.258 482.642V413.28C329.258 412.456 328.93 411.666 328.348 411.084C327.765 410.501 326.975 410.174 326.151 410.173H46.5325Z" fill="#E6E6E6"/>
<path d="M82.7783 469.708C94.7894 469.708 104.526 459.971 104.526 447.96C104.526 435.949 94.7894 426.212 82.7783 426.212C70.7672 426.212 61.0303 435.949 61.0303 447.96C61.0303 459.971 70.7672 469.708 82.7783 469.708Z" fill="#E6E6E6"/>
<path d="M133.006 433.462C132.055 433.478 131.149 433.866 130.482 434.544C129.815 435.222 129.441 436.135 129.441 437.086C129.441 438.037 129.815 438.95 130.482 439.628C131.149 440.306 132.055 440.695 133.006 440.711H303.884C304.845 440.729 305.775 440.365 306.467 439.699C307.16 439.032 307.56 438.118 307.578 437.156C307.597 436.195 307.233 435.266 306.566 434.573C305.9 433.88 304.985 433.481 304.024 433.462L304.003 433.462C303.964 433.461 303.924 433.461 303.884 433.462H133.006Z" fill="#E6E6E6"/>
<path d="M133.006 455.21C132.055 455.226 131.149 455.614 130.482 456.292C129.815 456.97 129.441 457.883 129.441 458.834C129.441 459.785 129.815 460.698 130.482 461.376C131.149 462.054 132.055 462.443 133.006 462.459H303.884C304.844 462.472 305.77 462.104 306.459 461.436C307.148 460.768 307.543 459.853 307.559 458.894C307.575 457.934 307.209 457.007 306.543 456.317C305.876 455.626 304.963 455.228 304.003 455.21C303.964 455.209 303.924 455.209 303.884 455.21H133.006Z" fill="#E6E6E6"/>
<path d="M326.151 603.809H46.5325C45.1597 603.807 43.8436 603.261 42.8729 602.29C41.9021 601.32 41.3561 600.004 41.3545 598.631V529.27C41.3561 527.897 41.9021 526.581 42.8729 525.61C43.8436 524.639 45.1597 524.093 46.5325 524.092H326.151C327.524 524.093 328.84 524.639 329.811 525.61C330.782 526.581 331.328 527.897 331.33 529.27V598.632C331.328 600.004 330.781 601.32 329.811 602.291C328.84 603.261 327.524 603.807 326.151 603.809ZM46.5325 526.163C45.7087 526.164 44.9189 526.491 44.3364 527.074C43.7539 527.656 43.4263 528.446 43.4255 529.27V598.632C43.4263 599.456 43.7539 600.245 44.3364 600.828C44.9189 601.41 45.7087 601.738 46.5325 601.739H326.151C326.975 601.738 327.765 601.41 328.348 600.828C328.93 600.245 329.258 599.456 329.258 598.632V529.27C329.258 528.446 328.93 527.656 328.348 527.074C327.765 526.491 326.975 526.164 326.151 526.163H46.5325Z" fill="#E6E6E6"/>
<path d="M82.7783 585.698C94.7894 585.698 104.526 575.961 104.526 563.95C104.526 551.939 94.7894 542.202 82.7783 542.202C70.7672 542.202 61.0303 551.939 61.0303 563.95C61.0303 575.961 70.7672 585.698 82.7783 585.698Z" fill="#E6E6E6"/>
<path d="M133.006 549.452C132.055 549.468 131.149 549.856 130.482 550.534C129.815 551.213 129.441 552.125 129.441 553.076C129.441 554.027 129.815 554.94 130.482 555.618C131.149 556.296 132.055 556.685 133.006 556.701H303.884C304.844 556.714 305.77 556.346 306.459 555.678C307.148 555.01 307.543 554.095 307.559 553.136C307.575 552.176 307.209 551.249 306.543 550.559C305.876 549.868 304.963 549.47 304.003 549.452C303.964 549.451 303.924 549.451 303.884 549.452H133.006Z" fill="#E6E6E6"/>
<path d="M133.006 571.2C132.055 571.216 131.149 571.604 130.482 572.282C129.815 572.96 129.441 573.873 129.441 574.824C129.441 575.775 129.815 576.688 130.482 577.366C131.149 578.044 132.055 578.433 133.006 578.449H303.884C304.844 578.462 305.77 578.094 306.459 577.426C307.148 576.758 307.543 575.843 307.559 574.884C307.575 573.924 307.209 572.997 306.543 572.307C305.876 571.616 304.963 571.218 304.003 571.2C303.964 571.199 303.924 571.199 303.884 571.2H133.006Z" fill="#E6E6E6"/>
<path d="M180.457 343.884C154.375 343.895 129.357 333.544 110.906 315.109C92.4557 296.674 82.0841 271.664 82.0732 245.582V245.5C82.0732 245.294 82.0732 245.077 82.0852 244.871C82.3852 190.992 126.517 147.115 180.457 147.115C206.55 147.112 231.576 157.474 250.029 175.923C268.481 194.371 278.849 219.395 278.852 245.488C278.855 271.581 268.493 296.606 250.044 315.059C231.596 333.512 206.573 343.88 180.48 343.883H180.457V343.884ZM180.457 149.184C155.03 149.241 130.652 159.329 112.62 177.258C94.5884 195.186 84.36 219.506 84.1572 244.933C84.1462 245.153 84.1462 245.333 84.1462 245.497C84.1439 264.548 89.7909 283.172 100.373 299.014C110.956 314.856 125.998 327.204 143.598 334.497C161.198 341.79 180.566 343.7 199.252 339.985C217.937 336.271 235.102 327.099 248.575 313.629C262.048 300.16 271.224 282.997 274.943 264.313C278.662 245.628 276.757 226.26 269.469 208.658C262.18 191.056 249.836 176.01 233.997 165.424C218.157 154.838 199.535 149.186 180.483 149.184H180.457Z" fill="#E6E6E6"/>
<path d="M315.114 462.842C337.205 462.842 355.114 444.933 355.114 422.842C355.114 400.75 337.205 382.842 315.114 382.842C293.022 382.842 275.114 400.75 275.114 422.842C275.114 444.933 293.022 462.842 315.114 462.842Z" fill="white"/>
<path d="M301.222 440.838C301.153 440.838 301.085 440.837 301.016 440.836H279.516C276.788 440.793 274.186 439.679 272.272 437.735C270.357 435.791 269.284 433.172 269.283 430.444C269.282 427.715 270.353 425.096 272.266 423.15C274.179 421.205 276.779 420.089 279.507 420.043H301.026C301.131 420.041 301.246 420.041 301.359 420.043C304.104 420.081 306.722 421.203 308.643 423.163C310.564 425.124 311.632 427.764 311.614 430.509C311.595 433.254 310.493 435.88 308.546 437.815C306.599 439.75 303.967 440.836 301.222 440.838Z" fill="#22C55E"/>
<path d="M649.378 725.344H325.345V727.584H649.378V725.344Z" fill="#3F3D56"/>
<path d="M345.31 535.731C345.055 535.335 344.844 534.913 344.68 534.472L339.516 520.645C338.915 519.03 338.98 517.243 339.695 515.675C340.41 514.107 341.718 512.887 343.332 512.282L458.574 469.25C460.189 468.649 461.977 468.713 463.544 469.428C465.112 470.143 466.332 471.451 466.937 473.065L472.1 486.893C472.398 487.692 472.537 488.543 472.507 489.396C472.476 490.249 472.279 491.088 471.924 491.864C471.57 492.641 471.066 493.34 470.442 493.922C469.817 494.504 469.084 494.957 468.284 495.256L353.043 538.287C351.656 538.805 350.133 538.834 348.727 538.369C347.321 537.904 346.115 536.974 345.31 535.731Z" fill="#22C55E"/>
<path d="M458.207 465.677L411.344 484.364C409.867 484.809 408.618 485.804 407.856 487.145C407.094 488.485 406.877 490.068 407.251 491.564L412.69 513.339C412.904 514.199 413.307 515.001 413.869 515.687C414.431 516.373 415.138 516.926 415.939 517.306C416.74 517.686 417.615 517.884 418.501 517.885C419.388 517.887 420.264 517.692 421.066 517.314L468.058 495.195C469.547 494.637 470.754 493.511 471.414 492.065C472.075 490.618 472.136 488.969 471.583 487.478L465.934 469.203C465.376 467.711 464.249 466.503 462.8 465.842C461.351 465.181 459.699 465.122 458.207 465.677Z" fill="#2F2E41"/>
<path d="M543.97 601.339C542.498 601.508 541.013 601.17 539.76 600.381C538.507 599.591 537.561 598.398 537.077 596.999L496.963 480.71C496.685 479.903 496.568 479.049 496.62 478.197C496.671 477.345 496.89 476.511 497.264 475.744C497.638 474.976 498.159 474.29 498.798 473.724C499.437 473.158 500.181 472.724 500.988 472.445L514.941 467.632C516.571 467.071 518.356 467.18 519.906 467.935C521.455 468.689 522.642 470.028 523.205 471.657L563.319 587.947C563.879 589.577 563.77 591.362 563.015 592.912C562.261 594.461 560.923 595.647 559.294 596.211L545.342 601.024C544.897 601.178 544.437 601.283 543.97 601.339Z" fill="#22C55E"/>
<path d="M526.195 469.667L541.591 517.712C542.187 519.134 542.214 520.731 541.664 522.172C541.115 523.613 540.032 524.787 538.64 525.45L518.38 535.108C517.579 535.489 516.704 535.688 515.818 535.691C514.931 535.694 514.055 535.501 513.252 535.124C512.449 534.748 511.74 534.199 511.175 533.516C510.61 532.833 510.203 532.033 509.984 531.174L497.154 480.846C496.637 479.342 496.738 477.694 497.434 476.265C498.13 474.835 499.363 473.739 500.865 473.217L518.559 465.948C520.065 465.431 521.715 465.531 523.146 466.228C524.578 466.926 525.674 468.162 526.195 469.667Z" fill="#2F2E41"/>
<path d="M479.58 726.003H464.82C463.097 726.001 461.445 725.316 460.226 724.097C459.008 722.879 458.322 721.226 458.32 719.503V596.488C458.322 594.765 459.008 593.113 460.226 591.894C461.445 590.676 463.097 589.99 464.82 589.988H479.58C481.303 589.99 482.955 590.676 484.174 591.894C485.392 593.113 486.078 594.765 486.08 596.488V719.503C486.078 721.226 485.392 722.879 484.174 724.097C482.955 725.316 481.303 726.001 479.58 726.003Z" fill="#2F2E41"/>
<path d="M508.772 726.003H494.012C492.289 726.001 490.637 725.316 489.418 724.097C488.2 722.879 487.514 721.226 487.512 719.503V596.488C487.514 594.765 488.2 593.113 489.418 591.894C490.637 590.676 492.289 589.99 494.012 589.988H508.772C510.495 589.99 512.147 590.676 513.366 591.894C514.585 593.113 515.27 594.765 515.272 596.488V719.503C515.27 721.226 514.585 722.879 513.366 724.097C512.147 725.316 510.495 726.001 508.772 726.003Z" fill="#2F2E41"/>
<path d="M520.936 610.951H453.873C452.017 610.948 450.238 610.21 448.926 608.898C447.613 607.586 446.875 605.806 446.873 603.951V495.006C446.873 484.257 451.143 473.947 458.744 466.346C466.345 458.745 476.655 454.475 487.404 454.475C498.154 454.475 508.463 458.745 516.064 466.346C523.665 473.947 527.936 484.257 527.936 495.006V603.951C527.933 605.806 527.195 607.586 525.883 608.898C524.571 610.21 522.791 610.948 520.936 610.951Z" fill="#CCCCCC"/>
<path d="M531.03 637.6H497.03V445.445L497.662 445.618C507.237 448.246 515.686 453.943 521.714 461.834C527.741 469.725 531.014 479.375 531.03 489.305V637.6Z" fill="#2F2E41"/>
<path d="M475.015 637.6H441.015V489.305C441.032 479.375 444.305 469.725 450.332 461.834C456.359 453.943 464.808 448.246 474.384 445.618L475.015 445.445V637.6Z" fill="#2F2E41"/>
<path d="M486.897 431.94C516.455 431.94 540.416 407.978 540.416 378.421C540.416 348.863 516.455 324.901 486.897 324.901C457.339 324.901 433.378 348.863 433.378 378.421C433.378 407.978 457.339 431.94 486.897 431.94Z" fill="#22C55E"/>
<path d="M547.404 366.099C547.404 366.099 550.404 283.099 511.404 310.099C511.404 310.099 488.904 234.599 433.904 347.599L417.904 363.599C417.904 363.599 489.904 353.599 556.904 384.599L547.404 366.099Z" fill="#2F2E41"/>
<path d="M487.713 404.925C484.407 404.834 480.293 404.719 477.123 402.403C476.18 401.686 475.404 400.77 474.851 399.721C474.298 398.672 473.982 397.515 473.923 396.331C473.866 395.489 474.004 394.645 474.327 393.866C474.65 393.086 475.148 392.392 475.784 391.837C477.439 390.438 479.857 390.11 482.462 390.876L479.763 371.15L481.744 370.879L484.917 394.069L483.263 393.31C481.344 392.43 478.711 391.982 477.075 393.365C476.673 393.726 476.36 394.176 476.16 394.678C475.96 395.18 475.879 395.721 475.922 396.26C475.97 397.142 476.208 398.002 476.619 398.784C477.03 399.565 477.604 400.249 478.303 400.788C480.77 402.59 484.049 402.822 487.769 402.926L487.713 404.925Z" fill="#2F2E41"/>
<path d="M469.964 372.852H459.192V374.852H469.964V372.852Z" fill="#2F2E41"/>
<path d="M503.964 372.852H493.192V374.852H503.964V372.852Z" fill="#2F2E41"/>
<path d="M367.571 540.833C366.127 541.503 364.477 541.571 362.983 541.024C361.489 540.477 360.273 539.359 359.603 537.915L325.092 463.531C324.423 462.088 324.354 460.438 324.901 458.943C325.448 457.449 326.567 456.234 328.01 455.564C329.453 454.895 331.104 454.826 332.598 455.373C334.092 455.92 335.308 457.038 335.978 458.481L370.489 532.865C371.158 534.309 371.227 535.959 370.68 537.453C370.133 538.947 369.014 540.163 367.571 540.833Z" fill="#3F3D56"/>
<path d="M332.114 460.794C331.053 460.794 330.035 460.373 329.285 459.623C328.535 458.873 328.114 457.855 328.114 456.794V405.842H278.114C277.053 405.842 276.035 405.42 275.285 404.67C274.535 403.92 274.114 402.903 274.114 401.842C274.114 400.781 274.535 399.763 275.285 399.013C276.035 398.263 277.053 397.842 278.114 397.842H332.114C333.175 397.842 334.192 398.263 334.942 399.013C335.692 399.763 336.114 400.781 336.114 401.842V456.794C336.114 457.855 335.692 458.873 334.942 459.623C334.192 460.373 333.175 460.794 332.114 460.794Z" fill="#22C55E"/>
<path d="M333.06 466.449C324.448 470.444 314.845 471.796 305.465 470.334C296.085 468.872 287.349 464.661 280.362 458.234C273.375 451.806 268.451 443.452 266.212 434.226C263.973 425 264.521 415.318 267.785 406.403C271.049 397.488 276.884 389.742 284.55 384.143C292.217 378.544 301.372 375.344 310.857 374.949C320.343 374.553 329.732 376.979 337.839 381.919C345.945 386.86 352.405 394.094 356.4 402.705C361.743 414.255 362.286 427.453 357.911 439.403C353.535 451.353 344.598 461.08 333.06 466.449ZM297.707 390.251C291.248 393.247 285.823 398.092 282.118 404.172C278.412 410.252 276.593 417.294 276.89 424.408C277.187 431.522 279.586 438.388 283.785 444.138C287.984 449.888 293.794 454.264 300.48 456.712C307.166 459.16 314.428 459.571 321.347 457.892C328.267 456.213 334.533 452.52 339.353 447.279C344.174 442.039 347.332 435.487 348.429 428.452C349.525 421.417 348.511 414.215 345.515 407.756C341.488 399.102 334.193 392.399 325.231 389.118C316.268 385.836 306.37 386.243 297.707 390.251Z" fill="#3F3D56"/>
<path d="M114.429 238V211.818H125.346C127.307 211.818 128.947 212.095 130.268 212.649C131.598 213.203 132.595 213.979 133.26 214.976C133.933 215.973 134.27 217.128 134.27 218.44C134.27 219.438 134.061 220.328 133.643 221.112C133.226 221.888 132.65 222.531 131.917 223.043C131.184 223.554 130.336 223.912 129.373 224.116V224.372C130.43 224.423 131.406 224.709 132.301 225.229C133.204 225.749 133.929 226.473 134.474 227.402C135.02 228.322 135.292 229.413 135.292 230.675C135.292 232.081 134.934 233.338 134.219 234.446C133.503 235.545 132.467 236.415 131.112 237.054C129.757 237.685 128.112 238 126.177 238H114.429ZM120.757 232.899H124.669C126.041 232.899 127.051 232.639 127.699 232.119C128.355 231.599 128.683 230.875 128.683 229.946C128.683 229.273 128.525 228.693 128.21 228.207C127.895 227.713 127.447 227.334 126.868 227.07C126.288 226.797 125.594 226.661 124.784 226.661H120.757V232.899ZM120.757 222.582H124.26C124.95 222.582 125.564 222.467 126.101 222.237C126.638 222.007 127.055 221.675 127.354 221.24C127.66 220.805 127.814 220.281 127.814 219.668C127.814 218.79 127.503 218.099 126.881 217.597C126.258 217.094 125.419 216.842 124.362 216.842H120.757V222.582ZM151.004 229.524V218.364H157.243V238H151.285V234.344H151.081C150.646 235.545 149.905 236.5 148.856 237.207C147.817 237.906 146.559 238.256 145.085 238.256C143.747 238.256 142.571 237.949 141.557 237.335C140.542 236.722 139.754 235.865 139.192 234.766C138.629 233.658 138.344 232.362 138.335 230.879V218.364H144.586V229.652C144.595 230.717 144.876 231.557 145.43 232.17C145.984 232.784 146.738 233.091 147.693 233.091C148.315 233.091 148.873 232.955 149.368 232.682C149.871 232.401 150.267 231.996 150.557 231.467C150.855 230.93 151.004 230.283 151.004 229.524ZM178.365 224.359L172.625 224.513C172.566 224.104 172.404 223.741 172.139 223.426C171.875 223.102 171.53 222.851 171.104 222.672C170.686 222.484 170.2 222.391 169.646 222.391C168.922 222.391 168.304 222.536 167.793 222.825C167.29 223.115 167.043 223.507 167.051 224.001C167.043 224.385 167.196 224.717 167.512 224.999C167.835 225.28 168.411 225.506 169.237 225.676L173.021 226.392C174.982 226.767 176.439 227.389 177.394 228.259C178.357 229.128 178.843 230.278 178.851 231.71C178.843 233.057 178.442 234.229 177.649 235.226C176.865 236.223 175.791 236.999 174.428 237.553C173.064 238.098 171.504 238.371 169.749 238.371C166.945 238.371 164.733 237.795 163.114 236.645C161.503 235.486 160.583 233.935 160.352 231.991L166.527 231.838C166.664 232.554 167.017 233.099 167.588 233.474C168.159 233.849 168.888 234.037 169.774 234.037C170.575 234.037 171.227 233.888 171.73 233.589C172.233 233.291 172.489 232.895 172.497 232.401C172.489 231.957 172.293 231.604 171.909 231.339C171.526 231.067 170.925 230.854 170.107 230.7L166.681 230.048C164.712 229.69 163.246 229.03 162.283 228.067C161.32 227.095 160.843 225.859 160.851 224.359C160.843 223.047 161.192 221.926 161.899 220.997C162.607 220.06 163.612 219.344 164.916 218.849C166.22 218.355 167.759 218.108 169.531 218.108C172.191 218.108 174.287 218.666 175.821 219.783C177.355 220.891 178.203 222.416 178.365 224.359ZM194.751 245.364V234.817H194.623C194.359 235.422 193.984 235.989 193.498 236.517C193.013 237.045 192.403 237.472 191.67 237.795C190.946 238.119 190.089 238.281 189.101 238.281C187.652 238.281 186.335 237.906 185.15 237.156C183.966 236.406 183.02 235.281 182.312 233.781C181.605 232.281 181.251 230.419 181.251 228.195C181.251 225.885 181.618 223.984 182.351 222.493C183.084 221.001 184.042 219.898 185.227 219.182C186.42 218.466 187.703 218.108 189.075 218.108C190.106 218.108 190.988 218.287 191.721 218.645C192.454 218.994 193.059 219.446 193.537 220C194.014 220.554 194.376 221.129 194.623 221.726H194.815V218.364H201.003V245.364H194.751ZM191.274 233.411C192.032 233.411 192.68 233.197 193.217 232.771C193.754 232.337 194.167 231.727 194.457 230.943C194.747 230.159 194.892 229.239 194.892 228.182C194.892 227.108 194.747 226.183 194.457 225.408C194.176 224.632 193.763 224.036 193.217 223.618C192.68 223.2 192.032 222.991 191.274 222.991C190.498 222.991 189.842 223.205 189.305 223.631C188.768 224.057 188.359 224.658 188.078 225.433C187.805 226.209 187.669 227.125 187.669 228.182C187.669 229.239 187.809 230.159 188.091 230.943C188.372 231.727 188.777 232.337 189.305 232.771C189.842 233.197 190.498 233.411 191.274 233.411ZM217.625 229.524V218.364H223.864V238H217.906V234.344H217.702C217.267 235.545 216.526 236.5 215.477 237.207C214.438 237.906 213.181 238.256 211.706 238.256C210.368 238.256 209.192 237.949 208.178 237.335C207.164 236.722 206.375 235.865 205.813 234.766C205.25 233.658 204.965 232.362 204.956 230.879V218.364H211.208V229.652C211.216 230.717 211.497 231.557 212.051 232.17C212.605 232.784 213.36 233.091 214.314 233.091C214.936 233.091 215.494 232.955 215.989 232.682C216.492 232.401 216.888 231.996 217.178 231.467C217.476 230.93 217.625 230.283 217.625 229.524ZM237.022 238.371C234.968 238.371 233.195 237.966 231.704 237.156C230.221 236.338 229.079 235.175 228.278 233.666C227.485 232.149 227.089 230.347 227.089 228.259C227.089 226.23 227.489 224.457 228.29 222.94C229.091 221.415 230.221 220.23 231.678 219.386C233.135 218.534 234.853 218.108 236.83 218.108C238.228 218.108 239.506 218.325 240.665 218.76C241.824 219.195 242.826 219.838 243.67 220.69C244.513 221.543 245.17 222.595 245.638 223.848C246.107 225.092 246.341 226.52 246.341 228.131V229.69H229.275V226.06H240.525C240.516 225.395 240.358 224.803 240.052 224.283C239.745 223.763 239.323 223.358 238.786 223.068C238.258 222.77 237.648 222.621 236.958 222.621C236.259 222.621 235.633 222.778 235.079 223.094C234.525 223.401 234.086 223.822 233.762 224.359C233.438 224.888 233.268 225.489 233.251 226.162V229.857C233.251 230.658 233.408 231.361 233.724 231.966C234.039 232.562 234.486 233.027 235.066 233.359C235.645 233.692 236.336 233.858 237.137 233.858C237.691 233.858 238.194 233.781 238.645 233.628C239.097 233.474 239.485 233.249 239.809 232.95C240.133 232.652 240.376 232.286 240.537 231.851L246.278 232.017C246.039 233.304 245.515 234.425 244.705 235.379C243.904 236.325 242.851 237.062 241.547 237.591C240.243 238.111 238.735 238.371 237.022 238.371ZM169.202 268.304H162.81C162.725 267.648 162.55 267.055 162.286 266.527C162.022 265.999 161.672 265.547 161.238 265.172C160.803 264.797 160.287 264.511 159.691 264.315C159.103 264.111 158.451 264.009 157.735 264.009C156.465 264.009 155.37 264.32 154.449 264.942C153.537 265.564 152.834 266.463 152.34 267.639C151.854 268.815 151.611 270.239 151.611 271.909C151.611 273.648 151.858 275.105 152.353 276.281C152.856 277.449 153.559 278.331 154.462 278.928C155.374 279.516 156.452 279.81 157.697 279.81C158.395 279.81 159.03 279.72 159.601 279.541C160.181 279.362 160.688 279.102 161.123 278.761C161.566 278.412 161.928 277.99 162.209 277.496C162.499 276.993 162.699 276.426 162.81 275.795L169.202 275.834C169.091 276.993 168.755 278.135 168.192 279.26C167.638 280.385 166.876 281.412 165.904 282.341C164.932 283.261 163.748 283.994 162.35 284.54C160.961 285.085 159.367 285.358 157.569 285.358C155.199 285.358 153.077 284.838 151.202 283.798C149.336 282.75 147.861 281.224 146.779 279.222C145.697 277.219 145.155 274.781 145.155 271.909C145.155 269.028 145.705 266.587 146.805 264.584C147.904 262.581 149.391 261.06 151.266 260.02C153.141 258.98 155.242 258.46 157.569 258.46C159.154 258.46 160.62 258.682 161.966 259.125C163.313 259.56 164.498 260.199 165.52 261.043C166.543 261.878 167.374 262.905 168.013 264.124C168.653 265.342 169.049 266.736 169.202 268.304ZM172.823 285V258.818H191.079V263.957H179.151V269.327H190.146V274.479H179.151V279.861H191.079V285H172.823ZM195.042 285V258.818H205.857C207.818 258.818 209.509 259.202 210.933 259.969C212.365 260.727 213.468 261.788 214.244 263.152C215.019 264.507 215.407 266.084 215.407 267.882C215.407 269.689 215.011 271.27 214.218 272.625C213.434 273.972 212.313 275.016 210.856 275.757C209.399 276.499 207.669 276.869 205.666 276.869H198.992V271.884H204.49C205.444 271.884 206.241 271.717 206.88 271.385C207.528 271.053 208.018 270.588 208.35 269.991C208.683 269.386 208.849 268.683 208.849 267.882C208.849 267.072 208.683 266.374 208.35 265.786C208.018 265.189 207.528 264.729 206.88 264.405C206.232 264.081 205.436 263.919 204.49 263.919H201.37V285H195.042Z" fill="#22C55E"/>
</g>
<defs>
<clipPath id="clip0_49_341">
<rect width="649.378" height="727.778" fill="white"/>
</clipPath>
</defs>
</svg>
